<svg version="1.1" id="Layer_1" xmlns="http://www.w3.org/2000/svg" xmlns:xlink="http://www.w3.org/1999/xlink" x="0px" y="0px"
	 width="100%" viewBox="0 0 512 512" enable-background="new 0 0 512 512" xml:space="preserve">
<path fill="#000000" opacity="1.000000" stroke="none" 
	d="
M1.000002,245.000000 
	C1.000000,229.979111 1.000000,214.958206 1.380884,199.338226 
	C2.171302,197.352798 2.795975,195.991089 2.957913,194.576401 
	C5.180668,175.158386 11.605798,156.958435 20.231508,139.668839 
	C28.549541,122.995972 39.137417,107.748077 51.572453,93.656631 
	C63.936119,79.646065 77.782188,67.478249 92.897949,56.749447 
	C107.470757,46.406021 122.975563,37.497551 139.636871,30.883625 
	C149.595764,26.930313 159.615051,22.901989 169.938385,20.149599 
	C183.770569,16.461687 197.831192,13.399574 211.965164,11.141920 
	C225.171188,9.032491 238.580322,8.005833 251.941254,7.134244 
	C258.642731,6.697078 265.449615,7.495526 272.184479,8.037600 
	C282.776337,8.890113 293.490967,9.231769 303.894104,11.177390 
	C319.527588,14.101213 335.136414,17.543694 350.388885,22.016514 
	C367.951294,27.166727 384.601898,34.728119 400.614838,43.799099 
	C415.897247,52.456230 430.360565,62.235870 443.279663,74.002106 
	C459.672485,88.932114 474.607391,105.233040 486.064362,124.483902 
	C497.510437,143.716446 505.991791,164.019852 509.998566,186.100723 
	C511.020050,191.729996 512.000610,197.366699 513.000000,203.000000 
	C513.000000,215.354233 513.000000,227.708450 512.603760,240.681427 
	C511.140991,248.026794 510.195496,254.775284 508.986023,261.476135 
	C504.618042,285.676636 494.937012,307.817169 481.901917,328.454376 
	C470.256439,346.891479 455.708649,363.023407 439.672943,377.745911 
	C428.920135,387.618164 418.225983,397.645233 406.706726,406.572235 
	C384.952820,423.430725 362.791077,439.778564 340.485779,455.905609 
	C317.772156,472.327850 294.638702,488.211060 269.174957,500.173737 
	C262.443115,503.336304 254.979019,506.308075 247.712311,506.684021 
	C231.824600,507.506042 222.574249,498.267487 221.094528,481.180420 
	C220.143753,470.201324 221.582642,459.382202 224.878128,448.742065 
	C227.219254,441.183228 225.396667,438.658905 218.085327,437.035492 
	C216.193390,436.615417 214.262268,436.375183 212.360031,435.997498 
	C190.596313,431.676392 168.969986,427.057892 148.077942,419.155823 
	C120.436203,408.700775 95.351578,393.998444 73.354378,374.531830 
	C57.643261,360.628174 43.499451,345.118530 32.282242,327.001160 
	C18.490356,304.725311 8.394851,281.218445 3.932843,255.343079 
	C3.327258,251.831223 1.995517,248.444611 1.000002,245.000000 
M269.526703,199.022858 
	C266.629639,195.127319 263.732880,191.231567 260.835449,187.336288 
	C256.006531,180.844391 251.448273,174.124100 246.240891,167.951447 
	C243.364914,164.542389 239.125885,162.760986 234.533432,165.045685 
	C230.641983,166.981644 227.093094,169.760345 227.071640,174.485413 
	C226.932541,205.128387 226.959778,235.772400 227.041702,266.415771 
	C227.054779,271.302124 230.181122,275.044678 234.284073,276.403900 
	C237.193298,277.367706 241.235046,276.257538 244.334503,274.998138 
	C249.417389,272.932770 249.864426,267.797638 249.925064,263.186127 
	C250.124313,248.033478 249.992477,232.876572 250.011383,217.721344 
	C250.013306,216.175293 250.173828,214.629440 250.327728,211.892120 
	C254.044601,216.977036 257.048401,221.044540 260.008545,225.143539 
	C271.549561,241.124847 283.044830,257.139374 294.635956,273.084229 
	C296.969086,276.293671 303.928101,278.095428 307.715240,276.798859 
	C311.596893,275.469940 314.992096,270.569458 314.993774,266.163025 
	C315.005554,235.352890 315.082916,204.542160 314.860687,173.733627 
	C314.840363,170.919693 313.305298,167.832336 311.701508,165.376144 
	C308.782166,160.905212 303.568817,160.933914 299.642456,162.400711 
	C294.904022,164.170883 292.012024,168.616333 292.006195,174.177109 
	C291.988892,190.664688 292.000031,207.152283 292.000000,223.639877 
	C292.000000,225.042130 292.000000,226.444382 292.000000,227.846649 
	C291.542328,228.026443 291.084656,228.206238 290.626984,228.386032 
	C283.740295,218.797104 276.853607,209.208160 269.526703,199.022858 
M394.428162,182.999985 
	C397.826141,182.667908 401.326965,182.743530 404.600433,181.917816 
	C411.171478,180.260361 413.822906,176.281067 412.991486,168.856049 
	C412.473907,164.234039 407.377838,160.014465 402.245544,160.008743 
	C382.745605,159.987045 363.244659,159.907074 343.747101,160.121704 
	C341.401703,160.147522 338.771179,161.421310 336.802551,162.847778 
	C332.748291,165.785477 332.039551,170.437988 332.029755,175.062378 
	C331.970123,203.228821 331.923462,231.395752 332.038208,259.561859 
	C332.083282,270.627991 337.287872,275.893280 348.570190,275.969940 
	C365.569336,276.085358 382.570221,276.054413 399.569427,275.944580 
	C402.292572,275.926971 405.230133,275.698029 407.691833,274.667145 
	C416.246216,271.084869 417.705841,260.512421 411.684540,256.458527 
	C408.272522,254.161346 403.855347,252.401077 399.800537,252.197388 
	C388.495758,251.629425 377.143860,252.000000 365.810547,252.000000 
	C362.561554,252.000000 359.312531,252.000000 356.360321,252.000000 
	C356.360321,243.874969 356.360321,236.464539 356.360321,229.000000 
	C368.551727,229.000000 380.394897,229.293381 392.206451,228.811737 
	C395.521423,228.676544 399.375122,226.961899 401.854156,224.723145 
	C405.238190,221.667068 405.654297,217.225159 403.409973,212.871033 
	C401.125671,208.439209 397.688477,205.976669 392.577545,205.989944 
	C380.472809,206.021378 368.367920,206.000031 356.265869,206.000031 
	C356.265869,198.068390 356.265869,190.662430 356.265869,183.000000 
	C368.835663,183.000000 381.141327,183.000000 394.428162,182.999985 
M107.957619,273.434143 
	C109.846252,274.623932 111.598343,276.256500 113.658012,276.891632 
	C116.242233,277.688599 119.083656,277.988708 121.805328,277.945953 
	C135.523331,277.730713 149.253235,277.605865 162.947235,276.863770 
	C168.233185,276.577301 172.545380,270.647552 171.965988,265.846344 
	C171.240570,259.835022 166.614883,254.677887 160.641724,254.891388 
	C149.886292,255.275787 139.107269,255.000000 128.000000,255.000000 
	C128.000000,252.096451 128.000000,249.637009 128.000000,247.177567 
	C128.000000,223.537216 128.011719,199.896835 127.993683,176.256500 
	C127.987335,167.928833 122.931602,161.979965 115.963737,162.000107 
	C109.094955,162.019974 105.000145,167.187347 105.000084,175.837143 
	C104.999870,205.637314 104.942177,235.437805 105.102692,265.237122 
	C105.116493,267.798431 106.578156,270.351898 107.957619,273.434143 
M206.000000,259.419373 
	C206.000000,231.288544 205.912476,203.157242 206.058884,175.027176 
	C206.097534,167.597168 200.447250,161.316650 194.319427,161.861984 
	C187.401718,162.477585 183.004745,166.950165 183.001358,174.852158 
	C182.996170,187.003342 183.000000,199.154526 183.000000,211.305710 
	C183.000000,229.282791 183.045898,247.260071 182.971954,265.236847 
	C182.949860,270.607208 185.647675,274.443512 190.138107,276.384369 
	C193.653473,277.903748 197.793732,277.861145 201.164871,274.984802 
	C205.725510,271.093506 206.342941,265.901581 206.000000,259.419373 
z"/>
<path fill="#FFFFFF" opacity="1.000000" stroke="none" 
	d="
M1.000002,245.468658 
	C1.995517,248.444611 3.327258,251.831223 3.932843,255.343079 
	C8.394851,281.218445 18.490356,304.725311 32.282242,327.001160 
	C43.499451,345.118530 57.643261,360.628174 73.354378,374.531830 
	C95.351578,393.998444 120.436203,408.700775 148.077942,419.155823 
	C168.969986,427.057892 190.596313,431.676392 212.360031,435.997498 
	C214.262268,436.375183 216.193390,436.615417 218.085327,437.035492 
	C225.396667,438.658905 227.219254,441.183228 224.878128,448.742065 
	C221.582642,459.382202 220.143753,470.201324 221.094528,481.180420 
	C222.574249,498.267487 231.824600,507.506042 247.712311,506.684021 
	C254.979019,506.308075 262.443115,503.336304 269.174957,500.173737 
	C294.638702,488.211060 317.772156,472.327850 340.485779,455.905609 
	C362.791077,439.778564 384.952820,423.430725 406.706726,406.572235 
	C418.225983,397.645233 428.920135,387.618164 439.672943,377.745911 
	C455.708649,363.023407 470.256439,346.891479 481.901917,328.454376 
	C494.937012,307.817169 504.618042,285.676636 508.986023,261.476135 
	C510.195496,254.775284 511.140991,248.026794 512.603760,241.150085 
	C513.000000,331.628937 513.000000,422.257904 513.000000,512.943420 
	C342.442078,512.943420 171.884155,512.943420 1.000000,512.943420 
	C1.000000,423.979370 1.000000,334.958344 1.000002,245.468658 
z"/>
<path fill="#FFFFFF" opacity="1.000000" stroke="none" 
	d="
M513.000000,202.531342 
	C512.000610,197.366699 511.020050,191.729996 509.998566,186.100723 
	C505.991791,164.019852 497.510437,143.716446 486.064362,124.483902 
	C474.607391,105.233040 459.672485,88.932114 443.279663,74.002106 
	C430.360565,62.235870 415.897247,52.456230 400.614838,43.799099 
	C384.601898,34.728119 367.951294,27.166727 350.388885,22.016514 
	C335.136414,17.543694 319.527588,14.101213 303.894104,11.177390 
	C293.490967,9.231769 282.776337,8.890113 272.184479,8.037600 
	C265.449615,7.495526 258.642731,6.697078 251.941254,7.134244 
	C238.580322,8.005833 225.171188,9.032491 211.965164,11.141920 
	C197.831192,13.399574 183.770569,16.461687 169.938385,20.149599 
	C159.615051,22.901989 149.595764,26.930313 139.636871,30.883625 
	C122.975563,37.497551 107.470757,46.406021 92.897949,56.749447 
	C77.782188,67.478249 63.936119,79.646065 51.572453,93.656631 
	C39.137417,107.748077 28.549541,122.995972 20.231508,139.668839 
	C11.605798,156.958435 5.180668,175.158386 2.957913,194.576401 
	C2.795975,195.991089 2.171302,197.352798 1.380884,198.869568 
	C1.000000,133.031647 1.000000,67.063301 1.000000,1.047478 
	C171.553146,1.047478 342.106323,1.047478 513.000000,1.047478 
	C513.000000,68.020508 513.000000,135.041595 513.000000,202.531342 
z"/>
<path fill="#FFFFFF" opacity="1.000000" stroke="none" 
	d="
M269.746826,199.321045 
	C276.853607,209.208160 283.740295,218.797104 290.626984,228.386032 
	C291.084656,228.206238 291.542328,228.026443 292.000000,227.846649 
	C292.000000,226.444382 292.000000,225.042130 292.000000,223.639877 
	C292.000031,207.152283 291.988892,190.664688 292.006195,174.177109 
	C292.012024,168.616333 294.904022,164.170883 299.642456,162.400711 
	C303.568817,160.933914 308.782166,160.905212 311.701508,165.376144 
	C313.305298,167.832336 314.840363,170.919693 314.860687,173.733627 
	C315.082916,204.542160 315.005554,235.352890 314.993774,266.163025 
	C314.992096,270.569458 311.596893,275.469940 307.715240,276.798859 
	C303.928101,278.095428 296.969086,276.293671 294.635956,273.084229 
	C283.044830,257.139374 271.549561,241.124847 260.008545,225.143539 
	C257.048401,221.044540 254.044601,216.977036 250.327728,211.892120 
	C250.173828,214.629440 250.013306,216.175293 250.011383,217.721344 
	C249.992477,232.876572 250.124313,248.033478 249.925064,263.186127 
	C249.864426,267.797638 249.417389,272.932770 244.334503,274.998138 
	C241.235046,276.257538 237.193298,277.367706 234.284073,276.403900 
	C230.181122,275.044678 227.054779,271.302124 227.041702,266.415771 
	C226.959778,235.772400 226.932541,205.128387 227.071640,174.485413 
	C227.093094,169.760345 230.641983,166.981644 234.533432,165.045685 
	C239.125885,162.760986 243.364914,164.542389 246.240891,167.951447 
	C251.448273,174.124100 256.006531,180.844391 260.835449,187.336288 
	C263.732880,191.231567 266.629639,195.127319 269.746826,199.321045 
z"/>
<path fill="#FFFFFF" opacity="1.000000" stroke="none" 
	d="
M393.937592,183.000000 
	C381.141327,183.000000 368.835663,183.000000 356.265869,183.000000 
	C356.265869,190.662430 356.265869,198.068390 356.265869,206.000031 
	C368.367920,206.000031 380.472809,206.021378 392.577545,205.989944 
	C397.688477,205.976669 401.125671,208.439209 403.409973,212.871033 
	C405.654297,217.225159 405.238190,221.667068 401.854156,224.723145 
	C399.375122,226.961899 395.521423,228.676544 392.206451,228.811737 
	C380.394897,229.293381 368.551727,229.000000 356.360321,229.000000 
	C356.360321,236.464539 356.360321,243.874969 356.360321,252.000000 
	C359.312531,252.000000 362.561554,252.000000 365.810547,252.000000 
	C377.143860,252.000000 388.495758,251.629425 399.800537,252.197388 
	C403.855347,252.401077 408.272522,254.161346 411.684540,256.458527 
	C417.705841,260.512421 416.246216,271.084869 407.691833,274.667145 
	C405.230133,275.698029 402.292572,275.926971 399.569427,275.944580 
	C382.570221,276.054413 365.569336,276.085358 348.570190,275.969940 
	C337.287872,275.893280 332.083282,270.627991 332.038208,259.561859 
	C331.923462,231.395752 331.970123,203.228821 332.029755,175.062378 
	C332.039551,170.437988 332.748291,165.785477 336.802551,162.847778 
	C338.771179,161.421310 341.401703,160.147522 343.747101,160.121704 
	C363.244659,159.907074 382.745605,159.987045 402.245544,160.008743 
	C407.377838,160.014465 412.473907,164.234039 412.991486,168.856049 
	C413.822906,176.281067 411.171478,180.260361 404.600433,181.917816 
	C401.326965,182.743530 397.826141,182.667908 393.937592,183.000000 
z"/>
<path fill="#FFFFFF" opacity="1.000000" stroke="none" 
	d="
M107.662430,273.171570 
	C106.578156,270.351898 105.116493,267.798431 105.102692,265.237122 
	C104.942177,235.437805 104.999870,205.637314 105.000084,175.837143 
	C105.000145,167.187347 109.094955,162.019974 115.963737,162.000107 
	C122.931602,161.979965 127.987335,167.928833 127.993683,176.256500 
	C128.011719,199.896835 128.000000,223.537216 128.000000,247.177567 
	C128.000000,249.637009 128.000000,252.096451 128.000000,255.000000 
	C139.107269,255.000000 149.886292,255.275787 160.641724,254.891388 
	C166.614883,254.677887 171.240570,259.835022 171.965988,265.846344 
	C172.545380,270.647552 168.233185,276.577301 162.947235,276.863770 
	C149.253235,277.605865 135.523331,277.730713 121.805328,277.945953 
	C119.083656,277.988708 116.242233,277.688599 113.658012,276.891632 
	C111.598343,276.256500 109.846252,274.623932 107.662430,273.171570 
z"/>
<path fill="#FFFFFF" opacity="1.000000" stroke="none" 
	d="
M206.000000,259.904114 
	C206.342941,265.901581 205.725510,271.093506 201.164871,274.984802 
	C197.793732,277.861145 193.653473,277.903748 190.138107,276.384369 
	C185.647675,274.443512 182.949860,270.607208 182.971954,265.236847 
	C183.045898,247.260071 183.000000,229.282791 183.000000,211.305710 
	C183.000000,199.154526 182.996170,187.003342 183.001358,174.852158 
	C183.004745,166.950165 187.401718,162.477585 194.319427,161.861984 
	C200.447250,161.316650 206.097534,167.597168 206.058884,175.027176 
	C205.912476,203.157242 206.000000,231.288544 206.000000,259.904114 
z"/>
</svg>