<svg version="1.1" id="Layer_1" xmlns="http://www.w3.org/2000/svg" xmlns:xlink="http://www.w3.org/1999/xlink" x="0px" y="0px"
	 width="100%" viewBox="0 0 944 505" enable-background="new 0 0 944 505" xml:space="preserve">
<path fill="#FEFEFE" opacity="1.000000" stroke="none" 
	d="
M699.000000,506.000000 
	C466.000000,506.000000 233.500000,506.000000 1.000000,506.000000 
	C1.000000,337.666656 1.000000,169.333328 1.000000,1.000000 
	C315.666656,1.000000 630.333313,1.000000 945.000000,1.000000 
	C945.000000,169.333328 945.000000,337.666656 945.000000,506.000000 
	C863.166687,506.000000 781.333313,506.000000 699.000000,506.000000 
M578.499634,481.518066 
	C599.987366,481.395264 621.479370,481.500671 642.961914,481.099792 
	C681.787415,480.375336 719.745789,474.179810 756.633789,461.921539 
	C805.821960,445.575745 850.230591,421.185028 886.012329,382.995636 
	C934.202576,331.562866 949.832886,271.630615 929.925110,203.693024 
	C916.517273,157.937012 886.914673,123.826515 847.672241,98.000198 
	C789.526489,59.733234 724.350403,43.583893 655.741333,40.240158 
	C623.653320,38.676319 591.440491,39.671059 559.284180,39.522625 
	C558.172302,39.517490 557.059692,39.689693 555.492615,39.815849 
	C555.492615,167.355942 555.492615,294.594238 555.492615,422.167297 
	C553.193420,422.167297 551.377380,422.167297 549.561401,422.167297 
	C519.397583,422.167419 489.232361,421.990417 459.070496,422.232361 
	C440.165253,422.384033 422.544312,417.743896 405.796967,409.367554 
	C383.053284,397.992096 362.750183,382.859253 342.744507,367.399872 
	C330.541626,357.970093 320.723358,346.127411 312.852661,332.816772 
	C304.676727,318.989929 300.342957,304.074615 300.507080,287.369843 
	C373.613098,287.369843 446.342682,287.369843 519.287170,287.369843 
	C519.287170,266.067200 519.287170,245.286469 519.287170,223.936157 
	C446.877625,223.936157 374.486176,223.936157 301.956512,223.936157 
	C302.425507,205.345306 309.807861,190.115631 321.482849,176.989044 
	C356.903687,137.164078 402.649689,115.757019 453.626526,104.073952 
	C460.818390,102.425697 468.306061,102.067978 475.495819,101.133827 
	C475.495819,80.723900 475.495819,60.470932 475.495819,39.686626 
	C466.999542,40.238651 458.835510,40.424152 450.756470,41.350933 
	C404.186676,46.693165 360.839813,61.476940 320.765259,85.894829 
	C284.971161,107.704567 255.575256,135.846176 235.053894,172.622299 
	C210.725357,216.221176 208.263763,262.823181 217.665741,310.654816 
	C226.278809,354.472992 250.454926,388.938507 283.787720,417.609985 
	C285.310486,418.919830 286.872894,420.183594 288.899597,421.870667 
	C225.693741,421.870667 163.459137,421.870667 100.872292,421.870667 
	C100.872292,294.291534 100.872292,167.027313 100.872292,39.739716 
	C74.431229,39.739716 48.344460,39.739716 22.048601,39.739716 
	C22.048601,186.883118 22.048601,333.788330 22.048601,481.518036 
	C207.315155,481.518036 392.407349,481.518036 578.499634,481.518066 
z"/>
<path fill="#020202" opacity="1.000000" stroke="none" 
	d="
M577.999634,481.518066 
	C392.407349,481.518036 207.315155,481.518036 22.048601,481.518036 
	C22.048601,333.788330 22.048601,186.883118 22.048601,39.739716 
	C48.344460,39.739716 74.431229,39.739716 100.872292,39.739716 
	C100.872292,167.027313 100.872292,294.291534 100.872292,421.870667 
	C163.459137,421.870667 225.693741,421.870667 288.899597,421.870667 
	C286.872894,420.183594 285.310486,418.919830 283.787720,417.609985 
	C250.454926,388.938507 226.278809,354.472992 217.665741,310.654816 
	C208.263763,262.823181 210.725357,216.221176 235.053894,172.622299 
	C255.575256,135.846176 284.971161,107.704567 320.765259,85.894829 
	C360.839813,61.476940 404.186676,46.693165 450.756470,41.350933 
	C458.835510,40.424152 466.999542,40.238651 475.495819,39.686626 
	C475.495819,60.470932 475.495819,80.723900 475.495819,101.133827 
	C468.306061,102.067978 460.818390,102.425697 453.626526,104.073952 
	C402.649689,115.757019 356.903687,137.164078 321.482849,176.989044 
	C309.807861,190.115631 302.425507,205.345306 301.956512,223.936157 
	C374.486176,223.936157 446.877625,223.936157 519.287170,223.936157 
	C519.287170,245.286469 519.287170,266.067200 519.287170,287.369843 
	C446.342682,287.369843 373.613098,287.369843 300.507080,287.369843 
	C300.342957,304.074615 304.676727,318.989929 312.852661,332.816772 
	C320.723358,346.127411 330.541626,357.970093 342.744507,367.399872 
	C362.750183,382.859253 383.053284,397.992096 405.796967,409.367554 
	C422.544312,417.743896 440.165253,422.384033 459.070496,422.232361 
	C489.232361,421.990417 519.397583,422.167419 549.561401,422.167297 
	C551.377380,422.167297 553.193420,422.167297 555.492615,422.167297 
	C555.492615,294.594238 555.492615,167.355942 555.492615,39.815849 
	C557.059692,39.689693 558.172302,39.517490 559.284180,39.522625 
	C591.440491,39.671059 623.653320,38.676319 655.741333,40.240158 
	C724.350403,43.583893 789.526489,59.733234 847.672241,98.000198 
	C886.914673,123.826515 916.517273,157.937012 929.925110,203.693024 
	C949.832886,271.630615 934.202576,331.562866 886.012329,382.995636 
	C850.230591,421.185028 805.821960,445.575745 756.633789,461.921539 
	C719.745789,474.179810 681.787415,480.375336 642.961914,481.099792 
	C621.479370,481.500671 599.987366,481.395264 577.999634,481.518066 
M853.714050,294.122345 
	C864.680481,251.319672 858.143677,211.515594 832.132324,175.640610 
	C812.556091,148.640900 786.099182,130.256439 755.217346,118.117653 
	C726.775696,106.938034 697.049316,101.827667 666.696472,100.080460 
	C657.625061,99.558289 648.498291,99.999809 639.352600,99.999809 
	C639.352600,206.889740 639.352600,314.094452 639.352600,421.496887 
	C660.920593,421.631256 681.906250,419.561676 702.612549,414.972229 
	C740.847473,406.497772 775.927002,391.339386 805.848511,365.513153 
	C828.107056,346.301056 844.721558,323.245636 853.714050,294.122345 
z"/>
<path fill="#FEFEFE" opacity="1.000000" stroke="none" 
	d="
M853.553955,294.495056 
	C844.721558,323.245636 828.107056,346.301056 805.848511,365.513153 
	C775.927002,391.339386 740.847473,406.497772 702.612549,414.972229 
	C681.906250,419.561676 660.920593,421.631256 639.352600,421.496887 
	C639.352600,314.094452 639.352600,206.889740 639.352600,99.999809 
	C648.498291,99.999809 657.625061,99.558289 666.696472,100.080460 
	C697.049316,101.827667 726.775696,106.938034 755.217346,118.117653 
	C786.099182,130.256439 812.556091,148.640900 832.132324,175.640610 
	C858.143677,211.515594 864.680481,251.319672 853.553955,294.495056 
M729.337036,223.704788 
	C721.530945,226.793991 712.932556,228.679474 706.067383,233.198212 
	C685.527527,246.717850 685.249084,271.174866 704.716919,286.186798 
	C724.977722,301.810333 758.831726,300.935638 778.578796,284.278351 
	C793.794189,271.443665 794.708496,251.242752 780.284851,237.535736 
	C766.167969,224.120224 748.841797,221.258835 729.337036,223.704788 
z"/>
<path fill="#030303" opacity="1.000000" stroke="none" 
	d="
M729.771362,223.615585 
	C748.841797,221.258835 766.167969,224.120224 780.284851,237.535736 
	C794.708496,251.242752 793.794189,271.443665 778.578796,284.278351 
	C758.831726,300.935638 724.977722,301.810333 704.716919,286.186798 
	C685.249084,271.174866 685.527527,246.717850 706.067383,233.198212 
	C712.932556,228.679474 721.530945,226.793991 729.771362,223.615585 
z"/>
</svg>