<svg version="1.1" id="Layer_1" xmlns="http://www.w3.org/2000/svg" xmlns:xlink="http://www.w3.org/1999/xlink" x="0px" y="0px"
	 width="100%" viewBox="0 0 225 225" enable-background="new 0 0 225 225" xml:space="preserve">
<path fill="#040404" opacity="1.000000" stroke="none" 
	d="
M1.000000,163.000000 
	C1.000000,130.312439 1.000000,97.624878 1.344242,64.327286 
	C7.605017,43.585182 20.915356,32.576324 40.886662,32.482044 
	C89.367767,32.253174 137.851639,32.232349 186.332428,32.494183 
	C206.127060,32.601089 220.265076,44.416454 225.045288,63.536579 
	C225.178772,64.070572 225.673645,64.514221 226.000000,65.000000 
	C226.000000,97.354225 226.000000,129.708450 225.650497,162.661163 
	C220.292236,183.633392 203.914841,194.567932 186.722412,194.582214 
	C137.809235,194.622833 88.895653,194.702209 39.982975,194.540375 
	C22.278856,194.481812 8.153767,183.612427 2.807459,166.823196 
	C2.383539,165.491928 1.610690,164.271790 1.000000,163.000000 
M101.499870,178.721771 
	C129.495132,178.721725 157.490463,178.757019 185.485641,178.707016 
	C199.957825,178.681152 209.939575,168.687454 209.960052,154.245483 
	C209.998795,126.916779 210.037659,99.587746 209.941940,72.259323 
	C209.894257,58.642391 199.974686,48.373329 186.417648,48.334286 
	C137.759521,48.194138 89.100433,48.180672 40.442451,48.343212 
	C26.844545,48.388641 17.035980,58.790550 17.029814,72.311508 
	C17.017427,99.473618 17.010170,126.635765 17.035490,153.797867 
	C17.049639,168.975800 26.818041,178.705765 42.009659,178.717957 
	C61.506382,178.733612 81.003128,178.721771 101.499870,178.721771 
z"/>
<path fill="#FFFFFF" opacity="1.000000" stroke="none" 
	d="
M226.000000,64.531342 
	C225.673645,64.514221 225.178772,64.070572 225.045288,63.536579 
	C220.265076,44.416454 206.127060,32.601089 186.332428,32.494183 
	C137.851639,32.232349 89.367767,32.253174 40.886662,32.482044 
	C20.915356,32.576324 7.605017,43.585182 1.344242,63.858631 
	C1.000000,43.026123 1.000000,22.052246 1.000000,1.039184 
	C75.880562,1.039184 150.761154,1.039184 226.000000,1.039184 
	C226.000000,22.019537 226.000000,43.041111 226.000000,64.531342 
z"/>
<path fill="#FFFFFF" opacity="1.000000" stroke="none" 
	d="
M1.000000,163.468658 
	C1.610690,164.271790 2.383539,165.491928 2.807459,166.823196 
	C8.153767,183.612427 22.278856,194.481812 39.982975,194.540375 
	C88.895653,194.702209 137.809235,194.622833 186.722412,194.582214 
	C203.914841,194.567932 220.292236,183.633392 225.650497,163.129822 
	C226.000000,183.973801 226.000000,204.947601 226.000000,225.960693 
	C151.119797,225.960693 76.239571,225.960693 1.000000,225.960693 
	C1.000000,205.313828 1.000000,184.625565 1.000000,163.468658 
z"/>
<path fill="#FDFDFD" opacity="1.000000" stroke="none" 
	d="
M100.999863,178.721771 
	C81.003128,178.721771 61.506382,178.733612 42.009659,178.717957 
	C26.818041,178.705765 17.049639,168.975800 17.035490,153.797867 
	C17.010170,126.635765 17.017427,99.473618 17.029814,72.311508 
	C17.035980,58.790550 26.844545,48.388641 40.442451,48.343212 
	C89.100433,48.180672 137.759521,48.194138 186.417648,48.334286 
	C199.974686,48.373329 209.894257,58.642391 209.941940,72.259323 
	C210.037659,99.587746 209.998795,126.916779 209.960052,154.245483 
	C209.939575,168.687454 199.957825,178.681152 185.485641,178.707016 
	C157.490463,178.757019 129.495132,178.721725 100.999863,178.721771 
M86.891663,68.600861 
	C86.183777,70.903625 84.873825,73.202881 84.860405,75.509682 
	C84.713173,100.830757 84.796371,126.153069 84.735909,151.474854 
	C84.727341,155.062775 85.506950,158.041489 88.895988,159.845444 
	C92.272278,161.642639 95.260941,160.676575 98.220284,158.722473 
	C117.338623,146.098251 136.512680,133.558060 155.595291,120.880226 
	C162.053299,116.589745 161.970932,110.314774 155.439575,105.987633 
	C136.478806,93.425735 117.424561,81.004883 98.467239,68.437828 
	C94.756447,65.977898 91.229233,65.257088 86.891663,68.600861 
z"/>
<path fill="#030303" opacity="1.000000" stroke="none" 
	d="
M87.167648,68.312378 
	C91.229233,65.257088 94.756447,65.977898 98.467239,68.437828 
	C117.424561,81.004883 136.478806,93.425735 155.439575,105.987633 
	C161.970932,110.314774 162.053299,116.589745 155.595291,120.880226 
	C136.512680,133.558060 117.338623,146.098251 98.220284,158.722473 
	C95.260941,160.676575 92.272278,161.642639 88.895988,159.845444 
	C85.506950,158.041489 84.727341,155.062775 84.735909,151.474854 
	C84.796371,126.153069 84.713173,100.830757 84.860405,75.509682 
	C84.873825,73.202881 86.183777,70.903625 87.167648,68.312378 
M118.623558,126.087471 
	C124.844070,121.990883 131.064575,117.894287 137.749435,113.491905 
	C125.334282,105.318245 113.309074,97.401299 100.989594,89.290619 
	C100.989594,105.783966 100.989594,121.429169 100.989594,137.706787 
	C107.043091,133.733139 112.540718,130.124390 118.623558,126.087471 
z"/>
<path fill="#FCFCFC" opacity="1.000000" stroke="none" 
	d="
M118.330948,126.301552 
	C112.540718,130.124390 107.043091,133.733139 100.989594,137.706787 
	C100.989594,121.429169 100.989594,105.783966 100.989594,89.290619 
	C113.309074,97.401299 125.334282,105.318245 137.749435,113.491905 
	C131.064575,117.894287 124.844070,121.990883 118.330948,126.301552 
z"/>
</svg>